<svg width="1000" height="334" viewBox="0 0 1000 334" fill="none" xmlns="http://www.w3.org/2000/svg">
<g clip-path="url(#clip0_2557_31649)">
<rect width="333.576" height="333.576" fill="#2563EB"/>
<circle cx="167.077" cy="135.047" r="92.3395" fill="white"/>
<path d="M74.4487 281.347V220.136C74.4487 213.713 80.8439 209.252 86.8718 211.47L253.197 272.681C262.875 276.243 260.32 290.581 250.008 290.581H83.6827C78.5829 290.581 74.4487 286.447 74.4487 281.347Z" fill="white"/>
</g>
<path d="M382.019 239.788V81.0079H412.695V239.788H382.019ZM478.367 239.788L429.977 171.091H464.325L514.228 239.788H478.367ZM403.622 187.077V162.234H443.803C449.419 162.234 454.244 161.082 458.277 158.778C462.453 156.474 465.694 153.233 467.998 149.057C470.302 144.88 471.454 140.127 471.454 134.799C471.454 129.326 470.302 124.501 467.998 120.325C465.694 116.148 462.453 112.908 458.277 110.604C454.244 108.299 449.419 107.147 443.803 107.147H403.622V81.0079H440.562C453.236 81.0079 464.181 82.8802 473.398 86.6246C482.76 90.3691 489.961 96.0578 495.001 103.691C500.042 111.324 502.562 120.901 502.562 132.422V135.879C502.562 147.544 499.97 157.122 494.785 164.611C489.745 172.099 482.616 177.716 473.398 181.461C464.181 185.205 453.236 187.077 440.562 187.077H403.622ZM568.226 243.893C558.145 243.893 549.288 242.164 541.655 238.708C534.166 235.252 527.901 230.643 522.86 224.882C517.964 218.977 514.219 212.425 511.627 205.224C509.179 198.023 507.954 190.678 507.954 183.189V179.084C507.954 171.307 509.179 163.818 511.627 156.618C514.219 149.273 517.964 142.792 522.86 137.175C527.901 131.414 534.094 126.878 541.439 123.565C548.784 120.109 557.281 118.381 566.93 118.381C579.604 118.381 590.189 121.189 598.686 126.806C607.327 132.278 613.808 139.551 618.128 148.625C622.449 157.554 624.609 167.203 624.609 177.572V188.374H520.7V170.011H605.815L596.526 179.084C596.526 171.595 595.446 165.187 593.285 159.858C591.125 154.529 587.813 150.425 583.348 147.544C579.027 144.664 573.555 143.224 566.93 143.224C560.305 143.224 554.688 144.736 550.08 147.76C545.471 150.785 541.943 155.177 539.494 160.938C537.19 166.555 536.038 173.324 536.038 181.245C536.038 188.59 537.19 195.142 539.494 200.903C541.799 206.52 545.327 210.984 550.08 214.297C554.832 217.465 560.881 219.049 568.226 219.049C575.571 219.049 581.548 217.609 586.156 214.729C590.765 211.705 593.717 208.032 595.013 203.712H622.665C620.937 211.777 617.624 218.833 612.728 224.882C607.831 230.931 601.566 235.612 593.933 238.924C586.444 242.236 577.875 243.893 568.226 243.893ZM632.412 239.788V122.485H656.175V172.82H654.014C654.014 160.866 655.598 150.929 658.767 143.008C661.935 134.943 666.616 128.894 672.809 124.861C679.145 120.829 686.994 118.813 696.356 118.813H697.652C711.622 118.813 722.207 123.349 729.408 132.422C736.609 141.352 740.209 154.745 740.209 172.604V239.788H710.181V170.011C710.181 162.81 708.093 156.978 703.917 152.513C699.884 148.048 694.267 145.816 687.066 145.816C679.722 145.816 673.745 148.12 669.136 152.729C664.672 157.194 662.439 163.242 662.439 170.875V239.788H632.412ZM803.816 243.677C795.607 243.677 788.046 242.164 781.133 239.14C774.22 236.116 768.243 231.867 763.203 226.394C758.162 220.922 754.274 214.585 751.537 207.384C748.801 200.039 747.433 192.118 747.433 183.621V179.084C747.433 170.731 748.729 162.882 751.321 155.537C754.057 148.192 757.802 141.784 762.555 136.311C767.451 130.838 773.284 126.59 780.053 123.565C786.966 120.397 794.599 118.813 802.952 118.813C812.169 118.813 820.234 120.829 827.147 124.861C834.204 128.75 839.82 134.655 843.997 142.576C848.173 150.497 850.478 160.434 850.91 172.388L842.053 162.018V82.0881H872.08V239.788H848.317V189.886H853.502C853.07 201.839 850.622 211.849 846.157 219.914C841.693 227.835 835.788 233.811 828.443 237.844C821.242 241.732 813.033 243.677 803.816 243.677ZM810.513 218.401C816.417 218.401 821.818 217.105 826.715 214.513C831.611 211.777 835.5 207.888 838.38 202.847C841.405 197.663 842.917 191.614 842.917 184.701V176.06C842.917 169.147 841.405 163.386 838.38 158.778C835.356 154.025 831.395 150.425 826.499 147.976C821.602 145.384 816.273 144.088 810.513 144.088C804.032 144.088 798.271 145.672 793.23 148.841C788.334 151.865 784.445 156.185 781.565 161.802C778.829 167.419 777.46 173.972 777.46 181.461C777.46 188.95 778.901 195.502 781.781 201.119C784.661 206.592 788.55 210.84 793.446 213.865C798.487 216.889 804.176 218.401 810.513 218.401ZM960.051 239.788V205.008H955.082V166.339C955.082 159.57 953.426 154.529 950.114 151.217C946.801 147.904 941.689 146.248 934.776 146.248C931.175 146.248 926.855 146.32 921.814 146.464C916.773 146.608 911.661 146.824 906.476 147.112C901.435 147.256 896.899 147.472 892.866 147.76V122.269C896.179 121.981 899.923 121.693 904.1 121.405C908.276 121.117 912.525 120.973 916.845 120.973C921.31 120.829 925.486 120.757 929.375 120.757C941.473 120.757 951.482 122.341 959.403 125.51C967.468 128.678 973.517 133.647 977.549 140.415C981.726 147.184 983.814 156.041 983.814 166.987V239.788H960.051ZM922.246 242.812C913.749 242.812 906.26 241.3 899.779 238.276C893.442 235.252 888.474 230.931 884.873 225.314C881.417 219.698 879.689 212.929 879.689 205.008C879.689 196.367 881.777 189.31 885.953 183.837C890.274 178.364 896.251 174.26 903.884 171.523C911.661 168.787 920.734 167.419 931.103 167.419H958.323V185.349H930.671C923.758 185.349 918.43 187.077 914.685 190.534C911.085 193.846 909.284 198.167 909.284 203.495C909.284 208.824 911.085 213.145 914.685 216.457C918.43 219.77 923.758 221.426 930.671 221.426C934.848 221.426 938.664 220.706 942.121 219.265C945.721 217.681 948.673 215.089 950.978 211.488C953.426 207.744 954.794 202.703 955.082 196.367L962.427 204.792C961.707 213.001 959.691 219.914 956.378 225.53C953.21 231.147 948.745 235.468 942.985 238.492C937.368 241.372 930.455 242.812 922.246 242.812Z" fill="black"/>
<defs>
<clipPath id="clip0_2557_31649">
<rect width="333.576" height="333.576" rx="46.1697" fill="white"/>
</clipPath>
</defs>
</svg>
